<svg width="14" height="14" viewBox="0 0 14 14" fill="none" xmlns="http://www.w3.org/2000/svg">
<path d="M12.3375 1.66832C12.1147 1.44115 11.8321 1.2817 11.5224 1.2084C11.2127 1.13511 10.8886 1.15097 10.5875 1.25415L2.33338 4.01332C2.00048 4.12229 1.70962 4.33191 1.50094 4.61324C1.29226 4.89457 1.17606 5.23375 1.16838 5.58395C1.16069 5.93414 1.26191 6.27809 1.45805 6.5683C1.65419 6.85852 1.93558 7.08069 2.26338 7.20415L5.32005 8.37082C5.38965 8.39743 5.45302 8.4381 5.50622 8.49029C5.55941 8.54248 5.60128 8.60507 5.62922 8.67415L6.79588 11.7367C6.91464 12.0598 7.13014 12.3385 7.41303 12.5347C7.69592 12.731 8.03243 12.8353 8.37672 12.8333H8.41755C8.76814 12.8269 9.10795 12.711 9.38935 12.5018C9.67075 12.2926 9.87963 12.0006 9.98672 11.6667L12.7459 3.40082C12.8462 3.1027 12.8612 2.78245 12.789 2.47629C12.7168 2.17012 12.5605 1.89025 12.3375 1.66832ZM11.6667 3.03332L8.87838 11.305C8.84601 11.4097 8.78098 11.5013 8.69281 11.5663C8.60464 11.6314 8.49796 11.6666 8.38838 11.6667C8.27945 11.6684 8.17255 11.637 8.0819 11.5766C7.99124 11.5162 7.92113 11.4296 7.88088 11.3283L6.71422 8.26582C6.62963 8.04329 6.49919 7.84104 6.33136 7.67221C6.16353 7.50337 5.96207 7.37173 5.74005 7.28582L2.67755 6.11915C2.57424 6.08129 2.48543 6.01194 2.42367 5.92087C2.36192 5.82981 2.33033 5.72164 2.33338 5.61165C2.33347 5.50207 2.36863 5.39539 2.4337 5.30722C2.49878 5.21906 2.59036 5.15403 2.69505 5.12165L10.9667 2.36249C11.0617 2.32378 11.1658 2.31341 11.2666 2.33263C11.3673 2.35186 11.4603 2.39985 11.5344 2.4708C11.6084 2.54176 11.6603 2.63264 11.6838 2.73247C11.7073 2.8323 11.7013 2.93679 11.6667 3.03332Z" fill="#249D55"/>
<path d="M11.6667 3.03332L8.87838 11.305C8.84601 11.4097 8.78098 11.5013 8.69281 11.5663C8.60464 11.6314 8.49796 11.6666 8.38838 11.6667C8.27945 11.6684 8.17255 11.637 8.0819 11.5766C7.99124 11.5162 7.92113 11.4296 7.88088 11.3283L6.71422 8.26582C6.62963 8.04329 6.49919 7.84104 6.33136 7.67221C6.16353 7.50337 5.96207 7.37173 5.74005 7.28582L2.67755 6.11915C2.57424 6.08129 2.48543 6.01194 2.42367 5.92087C2.36192 5.82981 2.33033 5.72164 2.33338 5.61165C2.33347 5.50207 2.36863 5.39539 2.4337 5.30722C2.49878 5.21906 2.59036 5.15403 2.69505 5.12165L10.9667 2.36249C11.0617 2.32378 11.1658 2.31341 11.2666 2.33263C11.3673 2.35186 11.4603 2.39985 11.5344 2.4708C11.6084 2.54176 11.6603 2.63264 11.6838 2.73247C11.7073 2.8323 11.7013 2.93679 11.6667 3.03332Z" fill="#249D55"/>
</svg>
